<svg width="26" height="21" viewBox="0 0 26 21" fill="none" xmlns="http://www.w3.org/2000/svg">
<path d="M2.33333 2.35714L10.4768 8.61665L10.4796 8.61894C11.3838 9.29389 11.8362 9.63156 12.3317 9.76201C12.7696 9.87731 13.23 9.87731 13.668 9.76201C14.1639 9.63144 14.6176 9.29278 15.5234 8.61665C15.5234 8.61665 20.7468 4.53663 23.6667 2.35714M1 15.6574V5.34312C1 3.82298 1 3.06234 1.29065 2.48172C1.54631 1.971 1.95396 1.55607 2.45573 1.29584C3.02616 1 3.77345 1 5.26693 1H20.7336C22.2271 1 22.9728 1 23.5432 1.29584C24.045 1.55607 24.454 1.971 24.7096 2.48172C25 3.06177 25 3.82149 25 5.33866V15.662C25 17.1792 25 17.9378 24.7096 18.5178C24.454 19.0286 24.045 19.4442 23.5432 19.7044C22.9733 20 22.228 20 20.7375 20H5.26255C3.77199 20 3.0256 20 2.45573 19.7044C1.95396 19.4442 1.54631 19.0286 1.29065 18.5178C1 17.9372 1 17.1776 1 15.6574Z" stroke="white" stroke-width="1.5" stroke-linecap="round" stroke-linejoin="round"/>
</svg>
