<svg width="202" height="66" viewBox="0 0 202 66" fill="none" xmlns="http://www.w3.org/2000/svg">
<path d="M98.2987 23.4189H103.078V31.9502C103.078 33.2537 103.109 34.1537 103.174 34.6564C103.255 35.2554 103.36 35.7116 103.497 36.0219C103.665 36.4781 103.981 36.8133 104.443 37.0274C104.906 37.2757 105.465 37.3998 106.119 37.3998C106.774 37.3998 107.32 37.2757 107.786 37.0274C108.208 36.8195 108.528 36.4843 108.745 36.0219C108.872 35.7023 108.978 35.2461 109.055 34.6564C109.127 34.1785 109.164 33.2754 109.164 31.9502V23.4189H113.921V32.6919C113.921 34.5943 113.807 36.0064 113.574 36.9343C113.36 37.8529 112.966 38.6381 112.401 39.2929C111.777 40.0191 110.951 40.5498 109.921 40.885C108.9 41.245 107.634 41.425 106.126 41.425C104.617 41.425 103.314 41.245 102.318 40.885C101.306 40.5498 100.48 40.0191 99.8442 39.2929C99.2949 38.6536 98.9039 37.8685 98.6742 36.9343C98.4259 35.9909 98.3049 34.5788 98.3049 32.6919V23.4189H98.2987Z" fill="white"/>
<path d="M118.325 35.2895C119.058 36.1057 119.762 36.7078 120.43 37.0988C121.131 37.4992 121.817 37.6978 122.487 37.6978C123.117 37.6978 123.638 37.5271 124.054 37.1826C124.47 36.8381 124.675 36.4037 124.675 35.8761C124.675 35.3019 124.504 34.8488 124.16 34.523C123.794 34.2126 122.984 33.8868 121.733 33.5516C120.026 33.0892 118.819 32.4902 118.108 31.7547C117.391 31.0037 117.031 29.9826 117.031 28.6885C117.031 27.0127 117.593 25.644 118.72 24.592C119.827 23.5306 121.28 22.9999 123.077 22.9999C124.092 22.9999 125.007 23.1303 125.829 23.3941C126.695 23.6579 127.515 24.0489 128.29 24.5672L126.788 28.0058C126.261 27.5496 125.702 27.1989 125.113 26.9506C124.538 26.7178 123.977 26.603 123.424 26.603C122.872 26.603 122.4 26.7427 122.025 27.022C121.665 27.2858 121.485 27.6365 121.485 28.0771C121.485 28.5178 121.64 28.853 121.953 29.1323C122.279 29.3961 122.897 29.6475 123.797 29.8865C123.828 29.8958 123.856 29.902 123.881 29.9051C123.905 29.9082 123.939 29.9206 123.989 29.9361C125.938 30.4544 127.223 31.0378 127.847 31.6864C128.253 32.093 128.573 32.6082 128.806 33.2319C129.014 33.8216 129.116 34.495 129.116 35.2461C129.116 37.0988 128.505 38.5978 127.282 39.7398C126.053 40.8664 124.424 41.4281 122.394 41.4281C121.149 41.4281 120.035 41.2233 119.058 40.8167C118.08 40.4102 117.115 39.7554 116.165 38.8523L118.319 35.2926L118.325 35.2895Z" fill="white"/>
<path d="M132.582 35.2895C133.315 36.1057 134.019 36.7078 134.686 37.0988C135.388 37.4992 136.074 37.6978 136.744 37.6978C137.374 37.6978 137.895 37.5271 138.311 37.1826C138.727 36.8381 138.932 36.4037 138.932 35.8761C138.932 35.3019 138.761 34.8488 138.417 34.523C138.051 34.2126 137.241 33.8868 135.99 33.5516C134.283 33.0892 133.076 32.4902 132.365 31.7547C131.648 31.0037 131.288 29.9826 131.288 28.6885C131.288 27.0127 131.85 25.644 132.976 24.592C134.084 23.5306 135.537 22.9999 137.334 22.9999C138.349 22.9999 139.264 23.1303 140.086 23.3941C140.952 23.6579 141.772 24.0489 142.547 24.5672L141.045 28.0058C140.518 27.5496 139.959 27.1989 139.37 26.9506C138.795 26.7178 138.234 26.603 137.681 26.603C137.129 26.603 136.657 26.7427 136.282 27.022C135.922 27.2858 135.742 27.6365 135.742 28.0771C135.742 28.5178 135.897 28.853 136.21 29.1323C136.536 29.3961 137.154 29.6475 138.054 29.8865C138.085 29.8958 138.113 29.902 138.138 29.9051C138.162 29.9082 138.196 29.9206 138.246 29.9361C140.195 30.4544 141.48 31.0378 142.104 31.6864C142.51 32.093 142.83 32.6082 143.063 33.2319C143.271 33.8216 143.373 34.495 143.373 35.2461C143.373 37.0988 142.762 38.5978 141.539 39.7398C140.31 40.8664 138.681 41.4281 136.651 41.4281C135.406 41.4281 134.292 41.2233 133.315 40.8167C132.337 40.4102 131.372 39.7554 130.422 38.8523L132.576 35.2926L132.582 35.2895Z" fill="white"/>
<path d="M164.07 32.2234C164.07 33.4927 163.843 34.6782 163.387 35.7831C162.931 36.86 162.254 37.8437 161.351 38.7313C160.457 39.5941 159.436 40.2582 158.285 40.7206C157.081 41.1923 155.886 41.4282 154.707 41.4282C153.527 41.4282 152.317 41.1923 151.128 40.7206C149.955 40.2489 148.94 39.5879 148.087 38.7313C147.224 37.9089 146.548 36.9189 146.051 35.7613C145.573 34.6286 145.331 33.4493 145.331 32.2265C145.331 31.0038 145.57 29.8276 146.051 28.6917C146.545 27.5341 147.224 26.5441 148.087 25.7217C148.965 24.8435 149.977 24.1731 151.128 23.7076C152.246 23.2514 153.44 23.0248 154.707 23.0248C155.973 23.0248 157.177 23.2545 158.31 23.7138C159.442 24.1731 160.454 24.8435 161.345 25.7217C162.235 26.6 162.915 27.59 163.387 28.6917C163.843 29.7934 164.07 30.9727 164.07 32.2265V32.2234ZM154.7 37.3751C156.019 37.3751 157.121 36.8848 158.005 35.901C158.443 35.4137 158.769 34.8675 158.977 34.2593C159.185 33.651 159.287 32.9744 159.287 32.2234C159.287 30.7617 158.853 29.5359 157.981 28.5459C157.093 27.5621 156.001 27.0717 154.697 27.0717C153.394 27.0717 152.264 27.5621 151.401 28.5459C150.539 29.5296 150.107 30.7555 150.107 32.2234C150.107 33.6913 150.529 34.9824 151.377 35.9258C152.246 36.891 153.353 37.3751 154.694 37.3751H154.7Z" fill="white"/>
<path d="M95.7385 32.2231C95.7385 33.4924 95.5119 34.6779 95.0557 35.7828C94.5995 36.8596 93.923 37.8434 93.0199 38.731C92.1261 39.5938 91.105 40.2579 89.9537 40.7203C88.7495 41.192 87.5547 41.4279 86.3754 41.4279C85.1961 41.4279 83.9858 41.192 82.7972 40.7203C81.6241 40.2486 80.6092 39.5876 79.7558 38.731C78.893 37.9086 78.2165 36.9186 77.7199 35.761C77.242 34.6283 77 33.449 77 32.2262C77 31.0035 77.2389 29.8273 77.7199 28.6914C78.2134 27.5338 78.893 26.5438 79.7558 25.7214C80.6341 24.8431 81.6458 24.1728 82.7972 23.7073C83.9144 23.2511 85.1092 23.0245 86.3754 23.0245C87.6416 23.0245 88.8457 23.2542 89.9785 23.7135C91.1112 24.1728 92.123 24.8431 93.0136 25.7214C93.9043 26.5997 94.584 27.5897 95.0557 28.6914C95.5119 29.7931 95.7385 30.9724 95.7385 32.2262V32.2231ZM86.3723 37.3748C87.6913 37.3748 88.793 36.8845 89.6775 35.9007C90.115 35.4134 90.4409 34.8672 90.6488 34.259C90.8568 33.6507 90.9592 32.9741 90.9592 32.2231C90.9592 30.7614 90.5247 29.5355 89.6526 28.5456C88.765 27.5618 87.6727 27.0714 86.3692 27.0714C85.0658 27.0714 83.9361 27.5618 83.0734 28.5456C82.2106 29.5293 81.7792 30.7552 81.7792 32.2231C81.7792 33.691 82.2013 34.9821 83.0485 35.9255C83.9175 36.8907 85.0254 37.3748 86.3661 37.3748H86.3723Z" fill="white"/>
<path d="M166.943 23.4189H171.723V31.9502C171.723 33.2537 171.754 34.1537 171.819 34.6564C171.9 35.2554 172.005 35.7116 172.142 36.0219C172.309 36.4781 172.626 36.8133 173.088 37.0274C173.551 37.2757 174.109 37.3998 174.764 37.3998C175.419 37.3998 175.965 37.2757 176.431 37.0274C176.853 36.8195 177.172 36.4843 177.39 36.0219C177.517 35.7023 177.622 35.2461 177.7 34.6564C177.771 34.1785 177.809 33.2754 177.809 31.9502V23.4189H182.566V32.6919C182.566 34.5943 182.451 36.0064 182.219 36.9343C182.004 37.8529 181.61 38.6381 181.045 39.2929C180.422 40.0191 179.596 40.5498 178.566 40.885C177.545 41.245 176.279 41.425 174.77 41.425C173.262 41.425 171.959 41.245 170.962 40.885C169.951 40.5498 169.125 40.0191 168.489 39.2929C167.94 38.6536 167.549 37.8685 167.319 36.9343C167.071 35.9909 166.95 34.5788 166.95 32.6919V23.4189H166.943Z" fill="white"/>
<path d="M186.197 40.9564V23.4189H189.85C192.612 23.4189 194.542 23.5461 195.638 23.8037C196.771 24.0582 197.764 24.4865 198.608 25.0854C199.725 25.852 200.569 26.842 201.137 28.0554C201.711 29.2782 202 30.6592 202 32.2016C202 33.744 201.711 35.125 201.137 36.3478C200.569 37.5457 199.728 38.5357 198.608 39.3178C197.729 39.9167 196.764 40.3326 195.709 40.5622C194.654 40.826 192.969 40.9564 190.654 40.9564H186.197ZM190.93 37.0274H191.734C193.617 37.0274 194.989 36.6364 195.843 35.8543C196.705 35.0878 197.137 33.8712 197.137 32.2047C197.137 30.5382 196.705 29.3216 195.843 28.5302C194.98 27.742 193.611 27.3447 191.734 27.3447H190.93V37.0243V37.0274Z" fill="white"/>
<path d="M15.9378 35.844L15.949 29.9028L15 29V51H19V39.5477L15.9378 35.844Z" fill="#D12222"/>
<path d="M28.7124 44.2114L26 44.1758V66H31V41L28.7124 44.2114Z" fill="#D12222"/>
<path d="M26 0C11.6639 0 0 11.4569 0 25.5384C0 35.2269 5.52183 43.674 13.6378 48V46.1225C6.47561 41.9555 1.66182 34.2901 1.66182 25.5384C1.66182 12.3573 12.5806 1.63231 26 1.63231C39.4193 1.63231 50.3382 12.3573 50.3382 25.5384C50.3382 34.2901 45.5244 41.9574 38.3622 46.1225V48C46.4782 43.674 52 35.2269 52 25.5384C52 11.4569 40.3361 0 26 0Z" fill="white"/>
<path d="M15.9378 35.844L15.949 29.9028L15 29V51H19V39.5477L15.9378 35.844Z" fill="#D12222"/>
<path d="M25 59V44.8877L22.2171 44.9207L20 42V59H25Z" fill="white"/>
<path d="M28.7124 44.2114L26 44.1758V66H31V41L28.7124 44.2114Z" fill="#D12222"/>
<path d="M32 59H37V30L35.9937 30.7274L36.0084 36.6325L32 40.3153V59Z" fill="white"/>
<path d="M34.8115 4.35226L25.7296 15.3177L16.6456 4.35226C19.4321 3.14507 22.5033 2.47656 25.7296 2.47656C28.9558 2.47656 32.0271 3.14507 34.8115 4.35226Z" fill="white"/>
<path d="M39.4001 19.8906L37.2454 22.0453L40.6383 25.4382L47.6353 32.3035C48.1643 30.61 48.4957 28.8525 48.6216 27.0737L39.4001 19.8906Z" fill="white"/>
<path d="M12.0552 19.8906L2.83369 27.0737C2.95964 28.8525 3.29098 30.6119 3.81997 32.3054L10.6697 25.5855L14.2099 22.0453L12.0552 19.8906Z" fill="white"/>
<path d="M27.6654 14.318L27.7005 14.2772L27.6518 14.3024L27.6654 14.318Z" fill="white"/>
<path d="M40.2371 7.65608C38.8885 6.55547 37.4061 5.606 35.8269 4.82898L27.7002 14.2752L40.2371 7.65608Z" fill="white"/>
<path d="M23.7416 14.26L15.6304 4.83118C14.0511 5.60626 12.5688 6.55573 11.2202 7.65827L23.7358 14.2678L23.7435 14.2619L23.7416 14.26Z" fill="white"/>
<path d="M40.5103 42.9918L38.0281 33.3073V44.821C38.8768 44.2804 39.7119 43.6662 40.5103 42.9918Z" fill="white"/>
<path d="M47.2263 33.4913L40.4018 26.6667L38.0417 28.525L41.5198 42.0908C44.0446 39.6939 46.0133 36.7273 47.2263 33.4913Z" fill="white"/>
<path d="M13.4292 33.3091L10.9471 42.9937C11.7454 43.6681 12.5805 44.2823 13.4292 44.8229V33.3091Z" fill="white"/>
<path d="M9.93738 42.0908L13.4155 28.525L11.0554 26.6667L4.23087 33.4913C5.44192 36.7273 7.41256 39.6939 9.93738 42.0908Z" fill="white"/>
<path d="M32.407 13.0408L36.8268 16.4841V10.7078L32.407 13.0408Z" fill="white"/>
<path d="M48.6777 25.7153C48.6777 25.6242 48.6815 25.5331 48.6815 25.4421C48.6815 18.974 45.9339 12.7792 41.1381 8.43298L38.0281 10.0742V17.42L48.6777 25.7153Z" fill="white"/>
<path d="M19.0502 13.0408L14.6284 10.7078V16.4841L19.0502 13.0408Z" fill="white"/>
<path d="M13.4291 10.0742L10.3191 8.43298C5.52333 12.7792 2.77568 18.974 2.77568 25.444C2.77568 25.5351 2.77567 25.6262 2.77955 25.7172L13.4291 17.422V10.0761V10.0742Z" fill="white"/>
<path d="M20.8875 40.4708L23.1081 43.6196L25.7259 43.5866L28.3476 43.6196L30.5702 40.4708L25.7278 37.9305L20.8875 40.4708Z" fill="white"/>
<path d="M39.5589 25.9226L35.854 22.2178L34.4415 24.3744L31.6706 25.1708L30.4731 25.5157L28.8628 30.6874L29.9789 23.9946L35.7959 21.931L38.5203 19.2066L31.3334 13.6086L25.7276 16.5674L20.1219 13.6086L12.935 19.2066L15.6904 21.9542L20.5598 23.6691L20.5617 23.6827L21.5054 24.0179L22.6215 30.7107L21.0132 25.537L19.8138 25.1921L19.8157 25.1786L17.1088 24.4015L15.6032 22.2158L11.8964 25.9226L16.6728 29.6818L16.6592 35.7332L20.2943 39.3683L25.2374 36.7737V34.6752L21.5306 32.5341L22.2437 32.3383L22.2747 32.3461L25.7276 33.3847L29.2136 32.3383L29.8801 32.5379L26.2198 34.6752V36.7737L31.1629 39.3683L34.798 35.7332L34.7825 29.6818L39.5589 25.9226Z" fill="white"/>
</svg>
