<svg width="132" height="136" viewBox="0 0 132 136" fill="none" xmlns="http://www.w3.org/2000/svg">
<path d="M22.3394 117.111H27.3521V126.059C27.3521 127.426 27.3847 128.37 27.4531 128.897C27.5377 129.526 27.6484 130.004 27.7916 130.33C27.9674 130.808 28.2994 131.16 28.7844 131.384C29.2694 131.645 29.8553 131.775 30.5421 131.775C31.2289 131.775 31.8018 131.645 32.2901 131.384C32.7328 131.166 33.0681 130.815 33.2959 130.33C33.4294 129.994 33.54 129.516 33.6214 128.897C33.6963 128.396 33.7353 127.449 33.7353 126.059V117.111H38.7254V126.837C38.7254 128.832 38.6049 130.313 38.3608 131.287C38.1362 132.25 37.7228 133.074 37.1304 133.76C36.4761 134.522 35.6103 135.079 34.5296 135.43C33.4587 135.808 32.1306 135.997 30.5486 135.997C28.9667 135.997 27.5995 135.808 26.5547 135.43C25.4935 135.079 24.6277 134.522 23.9604 133.76C23.3842 133.09 22.9741 132.266 22.7332 131.287C22.4728 130.297 22.3459 128.816 22.3459 126.837V117.111H22.3394Z" fill="white"/>
<path d="M43.3446 129.561C44.1128 130.418 44.8517 131.049 45.5516 131.459C46.2872 131.879 47.0066 132.087 47.7097 132.087C48.3704 132.087 48.9173 131.908 49.3535 131.547C49.7897 131.186 50.0045 130.73 50.0045 130.177C50.0045 129.574 49.8255 129.099 49.4642 128.757C49.0801 128.432 48.2305 128.09 46.9187 127.739C45.1284 127.254 43.8622 126.625 43.1168 125.854C42.3649 125.066 41.9873 123.995 41.9873 122.638C41.9873 120.88 42.5764 119.445 43.758 118.341C44.9201 117.228 46.4435 116.671 48.3281 116.671C49.3925 116.671 50.3528 116.808 51.2154 117.085C52.1235 117.361 52.9829 117.772 53.7966 118.315L52.2212 121.922C51.6678 121.443 51.0819 121.075 50.4635 120.815C49.8613 120.571 49.2721 120.451 48.6927 120.451C48.1133 120.451 47.6185 120.597 47.2247 120.89C46.8471 121.167 46.6583 121.534 46.6583 121.997C46.6583 122.459 46.821 122.81 47.1498 123.103C47.4916 123.38 48.1394 123.644 49.0833 123.894C49.1159 123.904 49.1452 123.911 49.1712 123.914C49.1973 123.917 49.2331 123.93 49.2851 123.946C51.3293 124.49 52.6769 125.102 53.3312 125.782C53.7576 126.209 54.0929 126.749 54.337 127.403C54.5551 128.022 54.6625 128.728 54.6625 129.516C54.6625 131.459 54.0212 133.031 52.7388 134.229C51.4497 135.411 49.7408 136 47.612 136C46.3067 136 45.1382 135.785 44.1128 135.359C43.0875 134.932 42.0752 134.245 41.0791 133.298L43.3381 129.565L43.3446 129.561Z" fill="white"/>
<path d="M58.2982 129.561C59.0664 130.418 59.8054 131.049 60.5052 131.459C61.2408 131.879 61.9602 132.087 62.6633 132.087C63.3241 132.087 63.8709 131.908 64.3071 131.547C64.7433 131.186 64.9581 130.73 64.9581 130.177C64.9581 129.574 64.7791 129.099 64.4178 128.757C64.0337 128.432 63.1841 128.09 61.8723 127.739C60.082 127.254 58.8158 126.625 58.0704 125.854C57.3185 125.066 56.9409 123.995 56.9409 122.638C56.9409 120.88 57.5301 119.445 58.7116 118.341C59.8737 117.228 61.3971 116.671 63.2818 116.671C64.3462 116.671 65.3064 116.808 66.169 117.085C67.0772 117.361 67.9365 117.772 68.7503 118.315L67.1748 121.922C66.6215 121.443 66.0355 121.075 65.4171 120.815C64.8149 120.571 64.2257 120.451 63.6463 120.451C63.0669 120.451 62.5721 120.597 62.1783 120.89C61.8007 121.167 61.6119 121.534 61.6119 121.997C61.6119 122.459 61.7747 122.81 62.1034 123.103C62.4452 123.38 63.093 123.644 64.0369 123.894C64.0695 123.904 64.0988 123.911 64.1248 123.914C64.1509 123.917 64.1867 123.93 64.2387 123.946C66.2829 124.49 67.6305 125.102 68.2848 125.782C68.7112 126.209 69.0465 126.749 69.2906 127.403C69.5087 128.022 69.6161 128.728 69.6161 129.516C69.6161 131.459 68.9749 133.031 67.6924 134.229C66.4034 135.411 64.6945 136 62.5656 136C61.2604 136 60.0918 135.785 59.0664 135.359C58.0411 134.932 57.0288 134.245 56.0327 133.298L58.2917 129.565L58.2982 129.561Z" fill="white"/>
<path d="M91.324 126.345C91.324 127.677 91.0864 128.92 90.6079 130.079C90.1294 131.208 89.4198 132.24 88.4726 133.171C87.5351 134.076 86.4642 134.773 85.2566 135.258C83.9936 135.753 82.7404 136 81.5035 136C80.2665 136 78.9971 135.753 77.7504 135.258C76.52 134.763 75.4556 134.07 74.5604 133.171C73.6555 132.309 72.9459 131.27 72.4251 130.056C71.9238 128.868 71.6699 127.631 71.6699 126.349C71.6699 125.066 71.9206 123.832 72.4251 122.641C72.9427 121.427 73.6555 120.389 74.5604 119.526C75.4816 118.605 76.5428 117.902 77.7504 117.414C78.9222 116.935 80.1754 116.697 81.5035 116.697C82.8315 116.697 84.0945 116.938 85.2826 117.42C86.4707 117.902 87.5319 118.605 88.4661 119.526C89.4003 120.447 90.1131 121.486 90.6079 122.641C91.0864 123.797 91.324 125.034 91.324 126.349V126.345ZM81.497 131.749C82.8804 131.749 84.0359 131.235 84.9636 130.203C85.4226 129.692 85.7644 129.119 85.9824 128.481C86.2005 127.843 86.308 127.133 86.308 126.345C86.308 124.812 85.8523 123.527 84.9376 122.488C84.0066 121.456 82.8608 120.942 81.4937 120.942C80.1266 120.942 78.9417 121.456 78.0368 122.488C77.1319 123.52 76.6795 124.806 76.6795 126.345C76.6795 127.885 77.1222 129.239 78.0108 130.229C78.9222 131.241 80.0843 131.749 81.4905 131.749H81.497Z" fill="white"/>
<path d="M19.6541 126.345C19.6541 127.677 19.4165 128.92 18.938 130.079C18.4595 131.208 17.7499 132.24 16.8027 133.171C15.8652 134.076 14.7943 134.773 13.5866 135.258C12.3237 135.753 11.0705 136 9.83355 136C8.59662 136 7.32715 135.753 6.08046 135.258C4.85005 134.763 3.78565 134.07 2.8905 133.171C1.98559 132.309 1.27597 131.27 0.755158 130.056C0.253878 128.868 0 127.631 0 126.349C0 125.066 0.250623 123.832 0.755158 122.641C1.27271 121.427 1.98559 120.389 2.8905 119.526C3.81169 118.605 4.87283 117.902 6.08046 117.414C7.25229 116.935 8.50548 116.697 9.83355 116.697C11.1616 116.697 12.4246 116.938 13.6127 117.42C14.8008 117.902 15.8619 118.605 16.7961 119.526C17.7303 120.447 18.4432 121.486 18.938 122.641C19.4165 123.797 19.6541 125.034 19.6541 126.349V126.345ZM9.83029 131.749C11.2137 131.749 12.3692 131.235 13.2969 130.203C13.7559 129.692 14.0977 129.119 14.3158 128.481C14.5339 127.843 14.6413 127.133 14.6413 126.345C14.6413 124.812 14.1856 123.527 13.2709 122.488C12.3399 121.456 11.1942 120.942 9.82705 120.942C8.45992 120.942 7.27506 121.456 6.37015 122.488C5.46524 123.52 5.01279 124.806 5.01279 126.345C5.01279 127.885 5.45549 129.239 6.34412 130.229C7.25554 131.241 8.4176 131.749 9.82379 131.749H9.83029Z" fill="white"/>
<path d="M94.3384 117.111H99.3512V126.059C99.3512 127.426 99.3837 128.37 99.4521 128.897C99.5367 129.526 99.6474 130.004 99.7906 130.33C99.9664 130.808 100.298 131.16 100.783 131.384C101.268 131.645 101.854 131.775 102.541 131.775C103.228 131.775 103.801 131.645 104.289 131.384C104.732 131.166 105.067 130.815 105.295 130.33C105.428 129.994 105.539 129.516 105.62 128.897C105.695 128.396 105.734 127.449 105.734 126.059V117.111H110.724V126.837C110.724 128.832 110.604 130.313 110.36 131.287C110.135 132.25 109.722 133.074 109.129 133.76C108.475 134.522 107.609 135.079 106.529 135.43C105.458 135.808 104.13 135.997 102.548 135.997C100.966 135.997 99.5986 135.808 98.5537 135.43C97.4925 135.079 96.6267 134.522 95.9594 133.76C95.3833 133.09 94.9731 132.266 94.7322 131.287C94.4718 130.297 94.3449 128.816 94.3449 126.837V117.111H94.3384Z" fill="white"/>
<path d="M114.533 135.505V117.111H118.364C121.261 117.111 123.286 117.244 124.435 117.514C125.623 117.781 126.664 118.23 127.55 118.859C128.722 119.663 129.607 120.701 130.203 121.974C130.805 123.256 131.108 124.705 131.108 126.323C131.108 127.94 130.805 129.389 130.203 130.671C129.607 131.928 128.725 132.966 127.55 133.786C126.629 134.415 125.616 134.851 124.509 135.092C123.403 135.368 121.635 135.505 119.207 135.505H114.533ZM119.497 131.384H120.34C122.316 131.384 123.754 130.974 124.649 130.154C125.554 129.35 126.007 128.074 126.007 126.326C126.007 124.578 125.554 123.302 124.649 122.472C123.745 121.645 122.309 121.228 120.34 121.228H119.497V131.381V131.384Z" fill="white"/>
<path d="M48.6762 61.1171L48.699 51.0915L46.7622 49.5681V86.6922H54.9259V67.3668L48.6762 61.1171Z" fill="#D12222"/>
<path d="M70.8038 75.332L66.377 75.2734V111.242H74.5374V70.0393L70.8038 75.332Z" fill="#D12222"/>
<path d="M65.5536 0C41.6289 0 22.1636 19.4653 22.1636 43.39C22.1636 59.8509 31.3787 74.2025 44.923 81.5525V78.3625C32.9704 71.2827 24.9369 58.2592 24.9369 43.39C24.9369 20.9952 43.1588 2.77331 65.5536 2.77331C87.9485 2.77331 106.17 20.9952 106.17 43.39C106.17 58.2592 98.1368 71.286 86.1842 78.3625V81.5525C99.7286 74.2025 108.944 59.8509 108.944 43.39C108.944 19.4653 89.4784 0 65.5536 0Z" fill="white"/>
<path d="M48.6762 61.1171L48.699 51.0915L46.7622 49.5681V86.6922H54.9259V67.3668L48.6762 61.1171Z" fill="#D12222"/>
<path d="M64.5478 99.1332V75.4623L60.2088 75.5176L56.752 70.6188V99.1332H64.5478Z" fill="white"/>
<path d="M70.8038 75.332L66.377 75.2734V111.242H74.5374V70.0393L70.8038 75.332Z" fill="#D12222"/>
<path d="M76.3672 99.1331H84.1631V49.9458L82.5941 51.1795L82.6169 61.1953L76.3672 67.4418V99.1331Z" fill="white"/>
<path d="M80.8136 7.68192L65.5571 26.1023L50.2974 7.68192C54.9782 5.65401 60.1374 4.53101 65.5571 4.53101C70.9768 4.53101 76.1361 5.65401 80.8136 7.68192Z" fill="white"/>
<path d="M88.5215 33.7843L84.9019 37.4039L90.6015 43.1036L102.356 54.6363C103.244 51.7913 103.801 48.839 104.012 45.8508L88.5215 33.7843Z" fill="white"/>
<path d="M42.5861 33.7843L27.0952 45.8508C27.3068 48.839 27.8634 51.7946 28.752 54.6395L40.2587 43.3509L46.2057 37.4039L42.5861 33.7843Z" fill="white"/>
<path d="M68.8092 24.4235L68.8686 24.3544L68.7861 24.3972L68.8092 24.4235Z" fill="white"/>
<path d="M89.9275 13.2319C87.6619 11.3831 85.1718 9.78807 82.5189 8.48279L68.8672 24.3512L89.9275 13.2319Z" fill="white"/>
<path d="M62.2174 24.3255L48.5916 8.48633C45.9388 9.78836 43.4486 11.3833 41.1831 13.2355L62.2076 24.3385L62.2206 24.3287L62.2174 24.3255Z" fill="white"/>
<path d="M90.3865 72.5912L86.2168 56.3224V75.664C87.6425 74.7558 89.0454 73.724 90.3865 72.5912Z" fill="white"/>
<path d="M101.669 56.6316L90.2044 45.1672L86.2397 48.2888L92.0826 71.0776C96.3239 67.0511 99.6311 62.0675 101.669 56.6316Z" fill="white"/>
<path d="M44.8939 56.3257L40.7241 72.5945C42.0652 73.7273 43.4681 74.7591 44.8939 75.6673V56.3257Z" fill="white"/>
<path d="M39.0281 71.0776L44.8709 48.2888L40.9063 45.1672L29.4419 56.6316C31.4763 62.0675 34.7867 67.0511 39.0281 71.0776Z" fill="white"/>
<path d="M76.7739 22.2775L84.1987 28.0618V18.3584L76.7739 22.2775Z" fill="white"/>
<path d="M104.107 43.5689C104.107 43.4159 104.113 43.263 104.113 43.11C104.113 32.2446 99.4975 21.8381 91.4412 14.537L86.2168 17.294V29.634L104.107 43.5689Z" fill="white"/>
<path d="M54.3368 22.2775L46.9087 18.3584V28.0618L54.3368 22.2775Z" fill="white"/>
<path d="M44.8939 17.294L39.6695 14.537C31.6132 21.8381 26.9976 32.2445 26.9976 43.1132C26.9976 43.2662 26.9975 43.4192 27.0041 43.5722L44.8939 29.6372V17.2973V17.294Z" fill="white"/>
<path d="M57.4229 68.3563L61.1532 73.6457L65.5508 73.5904L69.9549 73.6457L73.6884 68.3563L65.554 64.0889L57.4229 68.3563Z" fill="white"/>
<path d="M88.7882 43.9173L82.5645 37.6936L80.1916 41.3165L75.5368 42.6543L73.5252 43.2337L70.8202 51.9215L72.6951 40.6785L82.4669 37.2118L87.0435 32.6352L74.9704 23.2313L65.5535 28.2018L56.1366 23.2313L44.0636 32.6352L48.6923 37.2509L56.8723 40.1316L56.8755 40.1544L58.4607 40.7175L60.3357 51.9606L57.634 43.2695L55.6191 42.6901L55.6223 42.6673L51.075 41.3621L48.5458 37.6903L42.3188 43.9173L50.3426 50.2321L50.3198 60.3977L56.4263 66.5042L64.73 62.1456V58.6204L58.5031 55.0236L59.7009 54.6948L59.753 54.7078L65.5535 56.4525L71.4094 54.6948L72.5291 55.0301L66.3803 58.6204V62.1456L74.684 66.5042L80.7905 60.3977L80.7645 50.2321L88.7882 43.9173Z" fill="white"/>
</svg>
